<?xml version="1.0" standalone="no"?>
<!DOCTYPE svg PUBLIC "-//W3C//DTD SVG 20010904//EN"
 "http://www.w3.org/TR/2001/REC-SVG-20010904/DTD/svg10.dtd">
<svg version="1.0" xmlns="http://www.w3.org/2000/svg"
 width="794.000000pt" height="794.000000pt" viewBox="0 0 794.000000 794.000000"
 preserveAspectRatio="xMidYMid meet">
<metadata>
Created by potrace 1.14, written by Peter Selinger 2001-2017
</metadata>
<g transform="translate(0.000000,794.000000) scale(0.100000,-0.100000)"
fill="#000000" stroke="none">
<path d="M2017 7563 c-4 -6 -15 -66 -26 -134 -11 -69 -32 -165 -46 -214 -29
-100 -122 -301 -179 -384 -20 -30 -34 -56 -31 -59 3 -4 20 -1 37 6 18 6 33 11
34 9 10 -10 -41 -83 -95 -136 -55 -55 -61 -63 -38 -59 15 3 27 3 27 1 0 -10
-36 -73 -67 -116 -19 -27 -33 -51 -30 -53 2 -2 21 3 42 11 l37 16 -31 -57
c-17 -32 -29 -59 -27 -62 2 -2 15 2 28 8 12 7 -2 -10 -32 -38 -57 -53 -55 -63
7 -37 19 8 37 15 38 15 1 0 0 -11 -3 -25 -5 -29 -112 -141 -171 -181 -23 -15
-39 -29 -36 -32 3 -3 24 -5 46 -3 39 2 40 1 28 -21 -6 -13 -25 -38 -42 -55
-34 -37 -29 -40 32 -18 22 8 41 10 41 6 0 -5 -29 -52 -64 -105 -36 -53 -59
-96 -53 -96 7 0 27 4 45 9 17 5 32 9 32 8 0 -2 -52 -36 -115 -77 -63 -41 -115
-78 -115 -81 0 -11 58 -19 90 -13 l30 6 -12 -32 c-6 -18 -31 -62 -54 -98 -24
-35 -44 -67 -44 -69 0 -3 22 -2 50 2 l50 7 -26 -69 c-45 -116 -45 -115 19 -88
20 8 38 15 41 15 2 0 10 -29 17 -65 12 -63 13 -64 32 -47 11 9 39 43 64 75 24
31 49 57 54 57 10 0 7 -61 -7 -145 l-5 -30 28 31 c15 17 45 52 67 78 21 26 40
45 42 43 2 -2 -5 -48 -16 -102 -11 -53 -20 -100 -20 -102 0 -3 24 19 53 49 62
65 105 95 117 82 5 -5 10 -31 12 -58 3 -53 0 -56 -82 -69 -24 -4 -32 -6 -95
-30 -16 -7 -33 -11 -37 -9 -5 1 -8 -2 -8 -8 0 -5 -7 -10 -15 -10 -8 0 -15 -3
-15 -7 0 -10 -62 -47 -73 -45 -4 1 -6 -1 -5 -5 4 -12 -28 -54 -35 -46 -4 3 -7
-3 -7 -14 0 -11 -3 -23 -7 -27 -7 -7 -10 -18 -17 -66 -2 -14 -4 -27 -5 -30 0
-4 -16 -4 -33 -2 -26 3 -44 18 -81 63 l-49 59 36 0 c34 0 86 17 86 29 0 3 -19
18 -43 33 -61 39 -117 90 -92 84 63 -15 85 -17 85 -8 0 14 -58 61 -140 112
-40 25 -78 57 -86 72 l-15 28 40 0 c22 0 42 4 45 8 2 4 -8 29 -24 54 -27 44
-28 47 -11 53 46 14 43 32 -10 63 l-51 29 36 7 c20 4 36 10 36 14 0 4 -25 20
-55 35 -41 20 -59 36 -74 66 -22 42 -17 51 31 51 19 0 19 1 4 24 -15 24 -15
25 16 28 l32 3 -50 31 c-27 17 -58 46 -68 64 l-19 33 37 -6 c37 -6 46 2 23 21
-7 6 -28 32 -47 58 l-34 47 32 -6 c38 -8 38 -9 -29 96 -30 48 -35 63 -24 67
11 4 4 19 -30 60 -24 30 -44 58 -45 63 0 4 14 7 31 7 l31 0 -30 38 c-97 124
-136 235 -167 482 -30 245 -35 250 -65 64 -38 -237 -116 -442 -232 -612 -17
-24 -27 -46 -24 -49 3 -3 19 -1 35 5 25 9 31 8 31 -2 0 -23 -86 -133 -119
-152 -37 -22 -40 -39 -6 -30 l26 7 -27 -53 c-15 -29 -40 -70 -56 -90 -32 -41
-25 -47 22 -23 40 21 40 4 -1 -59 -30 -48 -30 -49 -7 -43 18 5 14 -2 -21 -34
-24 -22 -41 -43 -37 -46 3 -3 23 2 46 11 40 16 40 16 40 -7 0 -23 -113 -141
-185 -194 l-30 -22 43 0 c23 -1 42 -4 42 -7 0 -12 -24 -51 -48 -76 -29 -31
-18 -35 35 -13 20 8 38 14 39 12 5 -5 -63 -116 -98 -160 -16 -21 -28 -41 -25
-43 3 -3 22 -1 43 5 21 6 39 9 40 8 2 -2 -49 -36 -111 -76 -63 -40 -115 -77
-115 -82 0 -10 35 -13 88 -10 l33 3 -32 -64 c-17 -34 -45 -80 -62 -101 l-30
-39 56 7 56 7 -34 -86 c-21 -53 -29 -86 -22 -86 7 0 31 9 54 20 l43 19 0 -22
c0 -12 6 -44 13 -71 l13 -50 39 49 c22 27 55 65 73 84 l32 36 -5 -40 c-2 -22
-7 -65 -10 -95 l-5 -55 21 25 c67 81 112 131 114 128 2 -2 -5 -44 -15 -93 -11
-50 -19 -96 -20 -103 0 -7 28 16 63 51 34 35 72 69 84 76 20 10 23 9 28 -21
16 -91 18 -89 -67 -109 -139 -33 -257 -108 -299 -190 -25 -50 -25 -128 0 -178
97 -189 500 -271 793 -161 144 54 238 167 224 268 -4 26 -7 55 -7 65 0 9 -4
15 -9 12 -5 -3 -11 3 -15 14 -8 26 -59 78 -84 86 -12 3 -21 11 -21 16 0 5 -7
9 -15 9 -8 0 -15 5 -15 11 0 5 -4 8 -9 4 -5 -3 -16 1 -24 9 -8 8 -17 13 -20
10 -3 -3 -18 1 -34 9 -15 8 -50 18 -78 21 -87 13 -95 16 -93 41 2 19 6 22 19
14 28 -15 36 -11 49 24 24 60 30 61 69 20 20 -21 34 -42 33 -48 -2 -5 -1 -7 3
-3 4 4 14 0 22 -8 24 -24 36 -6 28 44 -6 39 -5 44 10 38 9 -3 21 -6 26 -6 6 0
7 -5 3 -12 -4 -6 -3 -8 4 -4 6 3 47 -12 90 -34 44 -22 85 -40 91 -40 12 0 -3
32 -27 58 -7 7 -10 18 -7 23 4 5 2 9 -2 9 -7 0 -32 42 -50 81 -1 3 21 -2 50
-12 72 -24 157 -35 157 -20 0 6 -14 39 -31 72 -17 34 -27 64 -23 68 4 3 9 1
11 -5 4 -12 51 -7 70 8 7 5 17 7 23 3 5 -3 10 -2 10 3 0 6 9 8 20 5 11 -3 20
-10 20 -15 0 -5 5 -6 11 -2 7 4 10 1 7 -7 -3 -8 1 -20 9 -27 7 -8 10 -19 6
-25 -3 -7 -3 -9 1 -5 5 4 26 -13 47 -38 21 -24 42 -46 46 -47 4 -1 7 -6 5 -10
-1 -5 3 -5 9 -1 6 3 14 2 18 -3 3 -6 38 -21 76 -34 l70 -24 -3 -54 c-2 -35 2
-61 12 -77 12 -17 16 -50 16 -131 l-1 -108 -81 -47 -82 -46 -46 26 c-70 40
-70 40 -70 103 0 32 -5 61 -11 65 -6 3 -9 15 -6 25 3 11 1 17 -4 13 -5 -3 -9
1 -9 9 0 12 -21 24 -52 31 -3 0 -9 4 -13 8 -4 4 -17 3 -30 -2 -13 -5 -25 -6
-28 -4 -8 8 -57 -38 -57 -53 0 -8 -6 -16 -14 -19 -8 -3 -13 -13 -11 -22 1 -9
-2 -23 -8 -29 -6 -9 -5 -13 4 -13 9 0 10 -3 4 -8 -13 -9 -17 -32 -6 -32 5 0 8
-11 6 -25 -1 -14 4 -33 11 -42 9 -12 13 -51 14 -120 l0 -103 -44 -20 c-25 -11
-48 -25 -51 -31 -4 -6 -14 -8 -22 -5 -8 3 -12 2 -9 -3 6 -9 -83 -58 -97 -53
-5 1 -6 -1 -3 -6 5 -9 -42 -37 -56 -34 -5 1 -8 -2 -8 -6 0 -5 -16 -14 -35 -22
-19 -8 -35 -16 -35 -20 0 -10 -57 -40 -64 -33 -3 3 -6 1 -6 -5 0 -7 -5 -12
-11 -12 -6 0 -31 -14 -56 -32 -26 -17 -52 -31 -59 -31 -7 0 -16 -7 -19 -15 -3
-8 -12 -11 -21 -8 -8 3 -13 2 -10 -3 5 -8 -42 -36 -56 -33 -5 1 -8 -3 -8 -8 0
-6 -5 -10 -11 -10 -18 0 -122 -72 -158 -109 -65 -69 -79 -157 -39 -240 20 -42
68 -102 68 -85 0 4 8 0 17 -9 24 -21 138 -72 193 -87 25 -6 76 -14 113 -18
l68 -7 -278 -160 c-152 -87 -294 -176 -314 -196 -20 -20 -44 -58 -54 -84 -16
-41 -17 -53 -6 -93 7 -26 24 -62 38 -80 70 -92 258 -162 436 -162 l59 0 -31
-26 c-43 -36 -39 -47 9 -28 74 30 66 -6 -20 -91 l-59 -58 -108 -2 c-123 -1
-177 -17 -283 -82 -80 -48 -110 -90 -110 -150 0 -38 5 -49 44 -88 48 -48 121
-76 231 -90 l59 -7 -27 -20 c-41 -30 -34 -40 28 -36 30 1 55 1 55 -1 0 -12
-56 -112 -81 -143 -16 -20 -29 -39 -29 -41 0 -2 23 -2 50 1 l51 5 -22 -54
c-38 -95 -40 -102 -35 -106 2 -2 21 3 41 11 21 9 41 16 46 16 8 0 26 -96 21
-112 -7 -26 26 1 75 62 32 39 61 70 66 70 7 0 5 -38 -9 -127 -3 -18 -1 -33 3
-32 4 0 32 32 62 71 30 40 56 67 58 62 2 -6 -5 -51 -16 -102 -10 -51 -18 -92
-17 -92 1 0 34 32 73 70 40 39 76 70 82 70 8 0 28 -92 23 -110 -1 -2 -29 -10
-63 -17 -72 -14 -177 -62 -222 -99 -58 -48 -87 -101 -87 -160 0 -68 11 -94 60
-148 140 -152 500 -192 736 -82 86 41 136 83 163 140 73 149 -53 296 -301 351
-71 15 -78 19 -78 41 0 22 2 23 20 12 18 -11 23 -10 38 8 29 37 66 36 103 -2
18 -19 37 -34 41 -34 4 0 8 18 8 39 0 22 5 41 13 44 6 2 52 -16 100 -40 49
-24 93 -43 98 -41 5 2 -9 30 -31 63 -37 55 -39 61 -23 73 10 7 23 10 29 8 27
-10 135 -28 140 -23 3 3 -4 24 -16 47 -12 23 -20 43 -18 45 2 1 53 31 113 65
61 35 121 70 135 79 24 15 25 15 9 -4 -71 -86 -65 -190 17 -269 145 -141 481
-178 699 -77 33 15 205 112 383 215 178 103 328 189 335 192 9 3 12 -7 9 -36
-5 -50 26 -118 74 -159 105 -92 309 -144 484 -123 47 6 86 9 88 8 1 -2 -102
-63 -230 -137 -128 -74 -247 -147 -265 -162 -95 -84 -105 -191 -25 -279 47
-52 89 -79 182 -114 71 -27 84 -28 240 -29 153 0 170 2 235 26 80 29 3403
1944 3448 1987 65 61 86 154 52 226 -37 78 -157 153 -291 181 -77 16 -248 19
-309 5 -22 -5 -41 -8 -42 -7 -1 2 106 65 239 142 133 76 256 152 274 167 18
16 42 48 53 72 55 112 -2 219 -154 292 -67 33 -194 64 -256 64 -38 0 -212 111
-227 145 -16 36 -17 35 28 35 47 0 49 8 15 66 l-25 43 30 16 c16 8 30 19 30
23 0 4 -24 20 -53 36 l-52 30 38 9 c20 5 37 12 36 15 0 4 -27 20 -60 35 -46
22 -64 37 -79 67 -25 48 -25 50 -1 50 37 0 51 11 41 30 -8 15 -5 19 18 25 26
6 26 7 8 21 -11 8 -15 14 -9 14 21 0 106 86 124 125 24 53 24 99 -2 152 -35
72 -115 128 -244 169 -51 16 -76 30 -94 53 l-24 31 31 6 31 6 -38 52 c-89 119
-130 246 -161 498 -12 95 -24 180 -26 188 -10 28 -23 -13 -39 -121 -37 -244
-110 -444 -232 -633 -24 -37 -42 -71 -39 -73 3 -3 19 0 37 6 42 14 46 9 22
-30 -15 -26 -92 -75 -387 -246 -203 -117 -371 -213 -373 -213 -2 0 -3 14 -3
31 0 45 -28 98 -77 145 -32 30 -43 48 -43 71 0 16 -3 33 -7 37 -5 4 -8 11 -9
14 -4 36 -49 70 -97 74 -39 3 -84 -22 -98 -53 -6 -16 -15 -28 -18 -27 -4 2
-132 75 -285 163 l-277 160 5 56 c7 83 15 106 42 124 35 23 64 74 64 113 0 27
-9 43 -44 76 -24 24 -51 59 -61 79 -36 76 -147 106 -213 58 -18 -12 -32 -26
-32 -30 0 -4 -15 -24 -34 -43 -23 -24 -36 -48 -40 -76 -3 -23 -9 -60 -12 -82
-4 -27 -12 -41 -25 -45 -19 -6 -59 2 -69 14 -7 8 -56 36 -102 58 -21 10 -38
21 -38 25 0 5 -7 8 -15 8 -8 0 -15 5 -15 12 0 6 -3 9 -6 5 -3 -3 -11 -1 -18 4
-6 6 -36 23 -66 39 -30 16 -54 34 -53 39 2 6 -4 8 -12 5 -8 -4 -15 -1 -15 6 0
6 -4 9 -9 6 -4 -3 -19 6 -32 21 -21 23 -47 37 -141 76 -24 10 -27 17 -30 72
-4 68 -8 84 -25 102 -6 7 -13 18 -15 25 -3 9 -25 13 -69 12 -85 -1 -105 -7
-101 -30 1 -11 -6 -29 -16 -39 -13 -14 -18 -34 -17 -67 0 -30 -3 -44 -10 -41
-5 4 -1 -4 10 -17 11 -13 15 -20 8 -17 -6 4 -13 4 -15 0 -5 -12 -141 -78 -152
-75 -6 2 -8 0 -4 -3 8 -8 -42 -52 -54 -47 -5 1 -7 -1 -6 -5 2 -5 0 -9 -4 -10
-20 -7 -30 -1 -39 26 -12 34 -45 51 -100 51 -52 0 -72 -11 -99 -55 -12 -19
-25 -33 -28 -31 -11 7 -6 -67 7 -107 7 -20 17 -37 22 -37 5 0 9 -59 9 -134 l0
-133 -52 -12 c-29 -6 -60 -13 -68 -14 -8 -1 -21 -7 -28 -14 -7 -7 -35 -11 -67
-10 -30 1 -55 -1 -55 -4 0 -3 -11 -12 -25 -19 -14 -7 -34 -30 -46 -49 -20 -33
-37 -51 -49 -48 -3 0 -25 -14 -49 -31 -24 -18 -50 -32 -58 -32 -7 0 -13 -4
-13 -10 0 -5 -5 -10 -10 -10 -6 0 -29 -12 -51 -26 -23 -14 -38 -20 -33 -12 4
7 -5 1 -21 -14 -15 -16 -32 -28 -37 -28 -4 0 -27 -12 -51 -27 -23 -14 -47 -26
-54 -26 -7 0 -10 -4 -8 -8 5 -7 -30 -21 -52 -21 -30 -1 -40 3 -60 21 -12 11
-24 17 -27 14 -6 -6 -10 15 -9 45 1 6 -3 12 -8 12 -6 0 -6 8 0 19 6 10 7 21 3
25 -3 4 16 6 43 5 28 -1 68 3 90 9 22 6 51 13 65 16 32 5 111 36 129 50 12 9
13 8 6 -4 -5 -10 -2 -9 11 3 40 37 89 77 96 77 4 0 10 9 13 20 4 12 11 17 18
14 7 -4 9 -4 5 1 -4 4 -2 17 4 29 16 29 20 44 19 91 0 54 -3 66 -23 89 -10 10
-15 24 -11 29 3 6 2 7 -3 4 -6 -3 -19 8 -29 24 -11 16 -26 29 -32 29 -7 0 -13
3 -13 8 0 4 -18 16 -40 26 -22 11 -40 23 -40 28 0 4 -3 7 -7 6 -5 -1 -26 4
-48 11 -22 7 -69 18 -105 25 -56 10 -65 15 -66 33 -1 17 4 21 23 20 20 -2 28
6 40 38 9 22 18 42 20 44 2 3 29 -21 61 -52 32 -31 61 -57 66 -57 4 0 6 20 5
45 -2 24 0 47 3 50 3 4 51 -17 107 -44 55 -28 105 -51 110 -51 6 0 -12 37 -39
82 -28 45 -48 83 -46 85 2 2 28 -3 57 -11 30 -9 75 -20 102 -25 58 -10 59 -4
17 79 -16 33 -30 61 -30 64 0 2 18 2 41 -1 29 -4 44 -2 50 8 13 22 12 24 -40
87 l-50 60 50 4 c57 6 84 24 58 38 -32 18 -141 102 -137 105 2 2 23 -1 47 -6
24 -5 46 -7 49 -4 10 10 -40 54 -107 94 -85 52 -107 71 -116 99 -6 20 -3 22
34 22 23 0 41 4 41 8 0 4 -13 28 -29 53 l-28 46 28 10 c16 6 29 16 29 21 0 6
-24 24 -52 41 -29 17 -45 31 -36 31 9 0 29 5 44 10 27 11 27 11 -34 40 -48 23
-65 37 -81 69 l-21 40 35 7 c30 5 33 9 25 24 -8 15 -5 20 18 28 l27 9 -34 17
c-35 19 -76 58 -93 90 -9 17 -7 19 26 13 20 -3 36 -3 36 0 0 3 -17 27 -37 52
-64 80 -62 75 -25 68 38 -8 38 -11 -29 100 -29 47 -34 62 -23 65 10 2 1 19
-31 60 -25 32 -45 60 -45 63 0 3 14 5 30 5 l31 0 -40 53 c-87 117 -129 246
-156 488 -17 147 -26 191 -38 172z m1922 -2453 c6 0 11 -3 11 -7 0 -5 18 -16
40 -27 52 -25 62 -49 17 -41 -19 4 -46 0 -67 -9 -19 -8 -31 -15 -27 -16 5 0 1
-10 -7 -22 -9 -12 -16 -30 -16 -40 0 -10 -3 -18 -8 -18 -4 0 -12 -16 -18 -35
-6 -19 -7 -32 -3 -30 4 3 10 -2 13 -11 4 -10 2 -13 -7 -8 -9 6 -9 5 0 -7 6 -8
10 -34 9 -59 -1 -25 1 -57 5 -72 4 -16 4 -28 -2 -28 -5 0 -8 -3 -7 -7 4 -11
-4 -13 -29 -7 -13 4 -23 10 -23 15 0 5 -3 8 -7 7 -16 -3 -62 25 -56 35 4 6 1
7 -7 2 -8 -5 -17 -2 -24 7 -6 8 -14 15 -17 14 -3 -1 -22 8 -42 19 l-37 20 1
80 0 80 72 34 c84 40 153 101 162 142 l7 29 28 -20 c15 -11 33 -20 39 -20z
m-659 -184 c8 -7 35 -22 60 -36 25 -13 48 -28 52 -34 4 -6 8 -7 8 -3 0 5 8 1
18 -9 24 -24 27 -138 3 -130 -107 36 -195 57 -233 57 l-46 0 3 107 c1 59 3
110 4 115 1 7 98 -43 131 -67z m772 -117 c-2 -8 0 -11 4 -7 4 4 25 -2 46 -15
l40 -22 -4 -65 c-3 -53 -9 -75 -37 -116 l-33 -51 -38 21 c-52 28 -59 66 -35
176 2 8 4 15 5 15 2 0 11 53 12 72 1 7 11 11 22 9 12 -2 20 -10 18 -17z m778
-215 l224 -129 -79 -7 c-113 -11 -193 -38 -325 -112 l-115 -65 -6 57 c-4 31
-5 65 -4 75 2 9 0 17 -4 17 -4 0 -8 6 -9 13 -2 35 -11 78 -20 93 -12 21 -4 56
11 47 5 -3 7 -1 3 5 -11 18 76 147 93 138 3 -2 107 -61 231 -132z m-1160 107
c0 -4 16 -13 35 -21 19 -8 35 -17 35 -22 0 -4 7 -8 15 -8 8 0 15 -5 15 -11 0
-5 4 -8 9 -4 5 3 13 0 16 -5 4 -6 18 -15 31 -20 13 -5 24 -17 24 -27 1 -42 71
-84 108 -64 15 8 23 7 31 -3 17 -21 4 -24 -74 -16 -68 7 -201 -1 -257 -15
l-28 -7 0 120 c0 115 1 120 20 115 11 -3 20 -8 20 -12z m-2102 -669 c11 -7 5
-14 -21 -31 -19 -11 -37 -21 -41 -21 -3 0 -6 20 -6 45 l0 46 28 -15 c15 -9 33
-19 40 -24z m4355 -448 c-5 -13 -1 -15 18 -9 57 16 64 17 54 7 -5 -5 -59 -42
-119 -82 -117 -78 -124 -95 -37 -89 28 2 51 3 51 2 0 -1 -4 -13 -9 -27 -9 -23
-12 -24 -48 -14 -21 7 -92 12 -159 12 l-120 1 185 107 c102 59 187 108 188
108 1 0 0 -7 -4 -16z m-827 -446 c4 -7 3 -8 -4 -4 -7 4 -12 2 -12 -5 0 -7 -3
-10 -6 -6 -6 5 3 27 11 27 2 0 7 -5 11 -12z m401 -170 c-3 -8 -6 -5 -6 6 -1
11 2 17 5 13 3 -3 4 -12 1 -19z m-2956 -346 c-7 -2 -18 1 -23 6 -8 8 -4 9 13
5 13 -4 18 -8 10 -11z"/>
<path d="M5245 5280 c-67 -10 -210 -78 -263 -124 -65 -57 -78 -118 -39 -177
66 -100 241 -149 413 -118 134 24 295 134 309 211 25 133 -195 241 -420 208z"/>
<path d="M7400 1975 c-64 -18 -153 -61 -230 -113 -197 -133 -86 -331 209 -372
143 -19 275 9 406 88 126 76 155 111 155 192 0 80 -62 143 -185 190 -78 30
-271 38 -355 15z"/>
<path d="M6360 1269 c-65 -10 -202 -77 -258 -125 -88 -75 -76 -173 27 -238 71
-45 138 -61 251 -60 120 1 166 14 275 77 115 67 151 124 126 200 -23 68 -119
127 -241 146 -74 12 -103 12 -180 0z"/>
<path d="M2662 945 c-82 -18 -235 -99 -288 -152 -127 -124 -21 -284 218 -330
159 -30 300 -2 457 92 103 61 133 98 139 168 3 42 -1 58 -20 87 -34 50 -97 94
-170 120 -82 28 -246 36 -336 15z"/>
<path d="M5059 721 c-50 -16 -147 -73 -175 -102 -22 -23 -29 -39 -29 -71 0
-35 6 -46 42 -78 54 -47 115 -65 224 -65 81 0 92 3 163 39 131 67 168 136 110
206 -47 55 -97 74 -209 77 -55 1 -112 -1 -126 -6z"/>
</g>
</svg>
